# AST/ASF file generated using VICON BodyLanguage
# -----------------------------------------------
:version 1.10
:name VICON
:units
  mass 1.0
  length 0.45
  angle deg
:documentation
   .ast/.asf automatically generated from VICON data using
   VICON BodyBuilder and BodyLanguage model FoxedUp or BRILLIANT.MOD
:root
   order TX TY TZ RX RY RZ
   axis XYZ
   position 0 0 0  
   orientation 0 0 0 
:bonedata
  begin
     id 1 
     name lhipjoint
     direction 0.577973 -0.728611 0.367523 
     length 2.48544 
     axis 0 0 0  XYZ
  end
  begin
     id 2 
     name lfemur
     direction 0.34202 -0.939693 0  
     length 7.1921  
     axis 0 0 20  XYZ
    dof rx ry rz
    limits (-160.0 20.0)
           (-70.0 70.0)
           (-60.0 70.0)
  end
  begin
     id 3 
     name ltibia
     direction 0.34202 -0.939693 0   
     length 7.71059   
     axis 0 0 20   XYZ
    dof rx
    limits (-10.0 170.0)
  end
  begin
     id 4 
     name lfoot
     direction 0.089538 -0.246004 0.965124   
     length 2.19909   
     axis -90 7.62852e-016 20   XYZ
    dof rx rz
    limits (-45.0 90.0)
           (-70.0 20.0)
  end
  begin
     id 5 
     name ltoes
     direction 1.53544e-011 -4.21829e-011 1   
     length 1.10116   
     axis -90 7.62852e-016 20   XYZ
    dof rx
    limits (-90.0 20.0)
  end
  begin
     id 6 
     name rhipjoint
     direction -0.554414 -0.743062 0.374812   
     length 2.4371  
     axis 0 0 0  XYZ 
  end
  begin
     id 7 
     name rfemur
     direction -0.34202 -0.939693 0   
     length 7.47254   
     axis 0 0 -20   XYZ
    dof rx ry rz
    limits (-160.0 20.0)
           (-70.0 70.0)
           (-70.0 60.0)
  end
  begin
     id 8 
     name rtibia
     direction -0.34202 -0.939693 0   
     length 7.65855   
     axis 0 0 -20   XYZ
    dof rx
    limits (-10.0 170.0)
 end
 begin
     id 9 
     name rfoot
     direction -0.133779 -0.367555 0.92033   
     length 2.43006  
     axis -90 -7.62852e-016 -20   XYZ
    dof rx rz
    limits (-45.0 90.0)
           (-20.0 70.0)
  end
  begin
     id 10 
     name rtoes
     direction -1.53563e-011 -4.21889e-011 1   
     length 1.19625   
     axis -90 -7.62852e-016 -20   XYZ
    dof rx
    limits (-90.0 20.0)
  end
  begin
     id 11 
     name lowerback
     direction 0.0249066 0.998043 -0.0573585   
     length 2.08485   
     axis 0 0 0   XYZ
    dof rx ry rz
    limits (-20.0 45.0)
           (-30.0 30.0)
           (-30.0 30.0)
  end
  begin
     id 12 
     name upperback
     direction 0.0237884 0.999673 0.00943178   
     length 2.08515   
     axis 0 0 0   XYZ
    dof rx ry rz
    limits (-20.0 45.0)
           (-30.0 30.0)
           (-30.0 30.0)
  end
  begin
     id 13 
     name thorax
     direction 0.0106671 0.999301 0.0358174   
     length 2.09037   
     axis 0 0 0   XYZ
    dof rx ry rz
    limits (-20.0 45.0)
           (-30.0 30.0)
           (-30.0 30.0)
  end
  begin
     id 14 
     name lowerneck
     direction -0.0580016 0.987052 0.149546   
     length 1.84454   
     axis 0 0 0   XYZ
    dof rx ry rz
    limits (-20.0 45.0)
           (-30.0 30.0)
           (-30.0 30.0)
  end
  begin
     id 15 
     name upperneck
     direction 0.079456 0.981963 -0.171567   
     length 1.88141   
     axis 0 0 0   XYZ
    dof rx ry rz
    limits (-20.0 45.0)
           (-30.0 30.0)
           (-30.0 30.0)
  end
  begin
     id 16
     name head
     direction 0.0262167 0.9967 -0.0768276  
     length 1.89541  
     axis 0 0 0   XYZ
    dof rx ry rz
    limits (-20.0 45.0)
           (-30.0 30.0)
           (-30.0 30.0)
  end
  begin
     id 17 
     name lclavicle
     direction 0.946135 0.322134 -0.0325326  
     length 3.949  
     axis 0 0 0   XYZ
    dof ry rz
    limits (-20.0 10.0)
           (0.0 20.0)
  end
  begin
     id 18 
     name lhumerus
     direction 1 -4.48964e-011 1.94005e-028   
     length 5.10995   
     axis 180 -30 -90   XYZ
    dof rx ry rz
    limits (-60.0 90.0)
           (-90.0 90.0)
           (-90.0 90.0)
  end
  begin
     id 19
     name lradius
     direction 1 -4.48976e-011 2.87852e-027   
     length 3.21207   
     axis 180 -30 -90   XYZ
    dof rx
    limits (-10.0 170.0)
  end
  begin
     id 20
     name lwrist
     direction 1 -4.48963e-011 1.9975e-027   
     length 1.60604   
     axis 2.96054e-016 90 90   XYZ
    dof ry
    limits (-180.0 0.0)
 end
  begin
     id 21 
     name lhand
     direction 1 -4.48919e-011 4.00227e-027   
     length 0.63349   
     axis -2.5488e-015 90 90   XYZ
    dof rx rz
    limits (-90.0 90.0)
           (-45.0 45.0)
  end
  begin
     id 22 
     name lfingers
     direction 1 -4.49037e-011 7.9652e-027   
     length 0.510736   
     axis -5.0975e-015 90 90   XYZ
    dof rx
    limits (0.0 90.0)
  end
  begin
     id 23
     name lthumb
     direction 0.707107 -6.34922e-011 0.707107   
     length 0.733318   
     axis -90 45 -4.48553e-014   XYZ
    dof rx rz
    limits (-45.0 45.0)
           (-45.0 45.0)
  end
  begin
     id 24 
     name rclavicle
     direction -0.940085 0.328911 -0.0897654   
     length 3.93848  
     axis 0 0 0   XYZ 
    dof ry rz
    limits (-10.0 20.0)
           (-20.0 0.0)
  end
  begin
     id 25 
     name rhumerus
     direction -1 -4.48958e-011 3.02044e-027  
     length 5.25109   
     axis 180 30 90   XYZ
    dof rx ry rz
    limits (-90.0 60.0)
           (-90.0 90.0)
           (-90.0 90.0)
  end
  begin
     id 26 
     name rradius
     direction -1 -4.4897e-011 9.78352e-028   
     length 3.28364   
     axis 180 30 90   XYZ
    dof rx
    limits (-10.0 170.0)
  end
  begin
     id 27 
     name rwrist
     direction -1 -4.48943e-011 1.99918e-027   
     length 1.64182   
     axis 2.96054e-016 -90 -90   XYZ
    dof ry
    limits (-180.0 0.0)
  end
  begin
     id 28
     name rhand
     direction -1 -4.49024e-011 3.98478e-027   
     length 0.599745   
     axis -2.5488e-015 -90 -90   XYZ
    dof rx rz
    limits (-90.0 90.0)
           (-45.0 45.0)
  end
  begin
     id 29
     name rfingers
     direction -1 -4.48914e-011 8.00621e-027   
     length 0.48353   
     axis -5.0975e-015 -90 -90   XYZ
    dof rx
    limits (0.0 90.0)
  end
  begin
     id 30
     name rthumb
     direction -0.707107 -6.34992e-011 0.707107   
     length 0.694255   
     axis -90 -45 4.48553e-014   XYZ
    dof rx rz
    limits (-45.0 45.0)
           (-45.0 45.0)
  end
:hierarchy
  begin
    root lhipjoint rhipjoint lowerback
    lhipjoint lfemur
    lfemur ltibia
    ltibia lfoot
    lfoot ltoes
    rhipjoint rfemur
    rfemur rtibia
    rtibia rfoot
    rfoot rtoes
    lowerback upperback
    upperback thorax
    thorax lowerneck lclavicle rclavicle
    lowerneck upperneck
    upperneck head
    lclavicle lhumerus
    lhumerus lradius
    lradius lwrist
    lwrist lhand lthumb
    lhand lfingers
    rclavicle rhumerus
    rhumerus rradius
    rradius rwrist
    rwrist rhand rthumb
    rhand rfingers
  end

#!OML:ASF E:\CV Data\Top Level 1\Subject 1\Session 1\player.ASF
:FULLY-SPECIFIED
:DEGREES
536
root 3.17728 16.1309 1.5872 0.0474293 -13.3367 -11.9909
lowerback 10.203 6.96496 3.11729
upperback 0.235433 9.6671 0.768882
thorax -5.04147 4.7008 -2.27379
lowerneck -14.2986 -11.7178 -16.9037
upperneck 14.7378 -16.9134 21.7103
head 10.5955 -7.09198 7.92655
rclavicle 2.78299e-014 -2.54444e-014
rhumerus 167.088 114.471 82.4309
rradius 68.76
rwrist -8.85279
rhand -25.3193 9.56131
rfingers 7.12502
rthumb 1.20318 -20.415
lclavicle 2.78299e-014 -2.54444e-014
lhumerus -25.1831 -17.7449 93.0949
lradius 77.2904
lwrist 33.0054
lhand -18.7279 30.4517
lfingers 7.12502
lthumb 7.5678 60.2963
rfemur -1.06922 -3.76771 36.6426
rtibia 47.309
rfoot -31.6243 -15.5209
rtoes -15.5206
lfemur -38.7448 4.87012 -8.72645
ltibia 32.1346
lfoot -5.16448 10.7439
ltoes 2.10483
537
root 3.21076 16.1262 1.45776 0.0815619 -14.0362 -12.1713
lowerback 10.2836 6.87216 3.43333
upperback 0.374765 9.59154 1.01695
thorax -4.93552 4.66276 -2.17807
lowerneck -14.6805 -11.5559 -16.7193
upperneck 14.7874 -16.5737 21.3077
head 10.543 -6.9313 7.79745
rclavicle 8.34896e-015 3.65764e-014
rhumerus 165.397 115.192 80.6716
rradius 68.3982
rwrist -9.00208
rhand -26.6263 9.90484
rfingers 7.12502
rthumb -0.0591244 -20.0749
lclavicle 8.34896e-015 3.65764e-014
lhumerus -25.3532 -18.118 93.6463
lradius 77.1365
lwrist 32.5157
lhand -19.1218 31.1799
lfingers 7.12502
lthumb 7.18756 61.0379
rfemur -0.994524 -3.23826 36.9386
rtibia 46.467
rfoot -32.0873 -16.1213
rtoes -13.8009
lfemur -38.6954 4.84046 -8.29177
ltibia 32.1038
lfoot -6.73353 11.7326
ltoes 2.29481
538
root 3.24308 16.1259 1.33079 0.102889 -14.5597 -12.3004
lowerback 10.3629 6.72521 3.68149
upperback 0.503675 9.43562 1.25375
thorax -4.85318 4.58583 -2.04898
lowerneck -15.0143 -11.3818 -16.5335
upperneck 14.8151 -16.2269 20.9279
head 10.4775 -6.77012 7.67971
rclavicle -1.46007e-013 0
rhumerus 163.712 116.235 79.0126
rradius 68.0797
rwrist -8.94309
rhand -27.5914 10.4214
rfingers 7.12502
rthumb -0.991315 -19.556
lclavicle -1.46007e-013 0
lhumerus -25.581 -18.5057 94.2285
lradius 76.9383
lwrist 32.0659
lhand -19.5162 31.8168
lfingers 7.12502
lthumb 6.80688 61.6874
rfemur -0.949763 -2.96897 37.1384
rtibia 45.6248
rfoot -32.5219 -16.6019
rtoes -11.9756
lfemur -38.6665 4.85541 -8.01935
ltibia 32.0877
lfoot -7.96305 12.5775
ltoes 2.34553
539
root 3.27393 16.1294 1.20438 0.121709 -14.9118 -12.3657
lowerback 10.4515 6.52633 3.84062
upperback 0.608662 9.201 1.47547
thorax -4.8165 4.47027 -1.88161
lowerneck -15.3071 -11.1967 -16.35
upperneck 14.8389 -15.8772 20.5735
head 10.4081 -6.60909 7.57433
rclavicle 1.29309e-013 7.95139e-015
rhumerus 162.099 117.515 77.5314
rradius 67.8156
rwrist -8.63111
rhand -28.311 11.0185
rfingers 7.12502
rthumb -1.6863 -18.9546
lclavicle 1.29309e-013 7.95139e-015
lhumerus -25.8727 -18.9066 94.8325
lradius 76.7157
lwrist 31.6911
lhand -19.8684 32.2884
lfingers 7.12502
lthumb 6.46682 62.1697
rfemur -0.979102 -2.90155 37.2545
rtibia 44.8352
rfoot -32.9026 -17.0121
rtoes -10.1235
lfemur -38.6803 5.00313 -7.95153
ltibia 32.094
lfoot -8.77019 13.2082
ltoes 2.07111
540
root 3.30302 16.1369 1.076 0.153575 -15.0954 -12.3634
lowerback 10.5652 6.27819 3.89697
upperback 0.678774 8.89111 1.67905
thorax -4.84609 4.31719 -1.67408
lowerneck -15.5901 -11.0082 -16.1637
upperneck 14.8898 -15.5358 20.2367
head 10.3526 -6.45084 7.475
rclavicle -1.68967e-015 -7.95139e-016
rhumerus 160.61 118.938 76.2873
rradius 67.6171
rwrist -8.12333
rhand -28.797 11.6453
rfingers 7.12502
rthumb -2.15568 -18.3236
lclavicle -1.68967e-015 -7.95139e-016
lhumerus -26.2115 -19.3214 95.4443
lradius 76.4796
lwrist 31.4046
lhand -20.1359 32.5721
lfingers 7.12502
lthumb 6.20861 62.4611
rfemur -1.13915 -2.95921 37.3073
rtibia 44.1669
rfoot -33.1845 -17.3697
rtoes -8.37186
lfemur -38.7626 5.33134 -8.10111
ltibia 32.1371
lfoot -9.13599 13.5573
ltoes 1.68886
541
root 3.33062 16.1484 0.944377 0.208727 -15.1468 -12.3073
lowerback 10.7183 5.99425 3.86471
upperback 0.701646 8.52689 1.86337
thorax -4.95775 4.13617 -1.43851
lowerneck -15.8588 -10.8165 -15.9518
upperneck 14.9785 -15.2045 19.8903
head 10.3088 -6.297 7.36747
rclavicle -1.36167e-014 -7.95139e-016
rhumerus 159.244 120.424 75.2774
rradius 67.4919
rwrist -7.50184
rhand -29.1022 12.2638
rfingers 7.12502
rthumb -2.45043 -17.7019
lclavicle -1.36167e-014 -7.95139e-016
lhumerus -26.6097 -19.7557 96.0594
lradius 76.2528
lwrist 31.1887
lhand -20.3365 32.6598
lfingers 7.12502
lthumb 6.01494 62.5544
rfemur -1.47048 -3.04767 37.325
rtibia 43.6846
rfoot -33.3254 -17.6642
rtoes -6.84151
lfemur -38.9127 5.80733 -8.4165
ltibia 32.2406
lfoot -9.07435 13.6299
ltoes 1.18753
542
root 3.35753 16.164 0.809485 0.288957 -15.1137 -12.2189
lowerback 10.9179 5.68771 3.76905
upperback 0.684327 8.129 2.03338
thorax -5.14276 3.93764 -1.18402
lowerneck -16.1251 -10.624 -15.7194
upperneck 15.0977 -14.8846 19.5436
head 10.2784 -6.14731 7.25518
rclavicle 4.86029e-014 1.19271e-014
rhumerus 158.003 121.898 74.499
rradius 67.4493
rwrist -6.89484
rhand -29.2334 12.8117
rfingers 7.12502
rthumb -2.57713 -17.1525
lclavicle 4.86029e-014 1.19271e-014
lhumerus -27.026 -20.202 96.6693
lradius 76.0193
lwrist 30.9949
lhand -20.455 32.6176
lfingers 7.12502
lthumb 5.90058 62.5155
rfemur -1.9856 -3.1076 37.3285
rtibia 43.4268
rfoot -33.296 -17.8789
rtoes -5.61474
lfemur -39.1114 6.34163 -8.81039
ltibia 32.4336
lfoot -8.64636 13.4704
ltoes 0.607859
543
root 3.385 16.1838 0.673174 0.374615 -15.0747 -12.1284
lowerback 11.1767 5.38213 3.65486
upperback 0.648207 7.73344 2.19171
thorax -5.37764 3.73954 -0.934905
lowerneck -16.404 -10.4344 -15.4548
upperneck 15.2303 -14.5797 19.1979
head 10.258 -6.00204 7.13493
rclavicle -4.83047e-014 -3.26007e-014
rhumerus 156.913 123.3 73.9504
rradius 67.4842
rwrist -6.45714
rhand -29.1876 13.2585
rfingers 7.12502
rthumb -2.53284 -16.7062
lclavicle -4.83047e-014 -3.26007e-014
lhumerus -27.4364 -20.6684 97.2607
lradius 75.7842
lwrist 30.773
lhand -20.4951 32.4883
lfingers 7.12502
lthumb 5.86182 62.3872
rfemur -2.63695 -3.10438 37.3284
rtibia 43.3881
rfoot -33.103 -17.9726
rtoes -4.69656
lfemur -39.3029 6.84092 -9.17332
ltibia 32.7491
lfoot -7.9422 13.1555
ltoes 0.0350904
544
root 3.41404 16.2077 0.538072 0.454013 -15.0812 -12.059
lowerback 11.4737 5.091 3.56406
upperback 0.616594 7.36098 2.34039
thorax -5.62058 3.55258 -0.710073
lowerneck -16.7053 -10.2495 -15.1616
upperneck 15.3658 -14.2897 18.8586
head 10.2466 -5.86067 7.00884
rclavicle -3.08116e-014 -3.97569e-015
rhumerus 155.963 124.602 73.6046
rradius 67.5878
rwrist -6.28353
rhand -28.9721 13.6199
rfingers 7.12502
rthumb -2.32472 -16.3472
lclavicle -3.08116e-014 -3.97569e-015
lhumerus -27.8198 -21.1433 97.8236
lradius 75.5422
lwrist 30.4443
lhand -20.4596 32.2864
lfingers 7.12502
lthumb 5.89611 62.1844
rfemur -3.36342 -3.03805 37.3292
rtibia 43.5169
rfoot -32.7866 -17.9182
rtoes -3.99359
lfemur -39.4532 7.2572 -9.43617
ltibia 33.2126
lfoot -7.07338 12.7251
ltoes -0.395629
545
root 3.44479 16.2349 0.405517 0.519284 -15.1313 -12.0173
lowerback 11.7875 4.81204 3.50809
upperback 0.612607 7.00796 2.48148
thorax -5.83514 3.37568 -0.509923
lowerneck -17.0519 -10.0685 -14.8559
upperneck 15.4855 -14.0102 18.5526
head 10.2451 -5.71888 6.88963
rclavicle -2.52953e-014 -6.36111e-015
rhumerus 155.177 125.776 73.4596
rradius 67.7397
rwrist -6.4381
rhand -28.6085 13.911
rfingers 7.12502
rthumb -1.97364 -16.0597
lclavicle -2.52953e-014 -6.36111e-015
lhumerus -28.1253 -21.6256 98.343
lradius 75.2702
lwrist 29.9933
lhand -20.311 32.0632
lfingers 7.12502
lthumb 6.03952 61.9571
rfemur -4.10507 -2.94347 37.3313
rtibia 43.7302
rfoot -32.3936 -17.7323
rtoes -3.39243
lfemur -39.5585 7.61302 -9.60233
ltibia 33.8342
lfoot -6.16379 12.1447
ltoes -0.635008
546
root 3.47662 16.2652 0.276493 0.563791 -15.2047 -11.9869
lowerback 12.0965 4.54049 3.47103
upperback 0.642393 6.66455 2.61188
thorax -6.00508 3.20467 -0.325929
lowerneck -17.4316 -9.8908 -14.5348
upperneck 15.5733 -13.7388 18.2727
head 10.2437 -5.57708 6.77446
rclavicle 1.2275e-014 2.38542e-014
rhumerus 154.527 126.827 73.4753
rradius 67.9087
rwrist -6.89919
rhand -28.1562 14.1413
rfingers 7.12502
rthumb -1.53679 -15.8329
lclavicle 1.2275e-014 2.38542e-014
lhumerus -28.3558 -22.1066 98.8153
lradius 74.9796
lwrist 29.4307
lhand -20.0122 31.8997
lfingers 7.12502
lthumb 6.32801 61.7852
rfemur -4.807 -2.84942 37.3208
rtibia 43.9391
rfoot -31.975 -17.4581
rtoes -2.7906
lfemur -39.6169 7.93826 -9.71195
ltibia 34.5996
lfoot -5.34158 11.3945
ltoes -0.664823
547
root 3.50841 16.2981 0.151645 0.587509 -15.2936 -11.9491
lowerback 12.3768 4.27722 3.41957
upperback 0.70331 6.32649 2.73368
thorax -6.12427 3.03844 -0.136052
lowerneck -17.7958 -9.71056 -14.2149
upperneck 15.5954 -13.4669 18.0319
head 10.222 -5.4345 6.67283
rclavicle -1.88845e-014 1.35174e-014
rhumerus 153.977 127.778 73.6177
rradius 68.0687
rwrist -7.60802
rhand -27.6869 14.3355
rfingers 7.12502
rthumb -1.08352 -15.6415
lclavicle -1.88845e-014 1.35174e-014
lhumerus -28.5257 -22.5749 99.2498
lradius 74.6678
lwrist 28.7637
lhand -19.5397 31.7559
lfingers 7.12502
lthumb 6.78416 61.6272
rfemur -5.42857 -2.75412 37.288
rtibia 44.0723
rfoot -31.5545 -17.1665
rtoes -2.17362
lfemur -39.6198 8.2573 -9.79733
ltibia 35.4777
lfoot -4.75581 10.4975
ltoes -0.660981
548
root 3.53896 16.3335 0.0307471 0.590926 -15.3624 -11.8784
lowerback 12.6126 4.01491 3.31282
upperback 0.790644 5.97765 2.84727
thorax -6.19311 2.87011 0.0854434
lowerneck -18.1273 -9.52658 -13.9103
upperneck 15.5478 -13.1935 17.8425
head 10.1772 -5.2913 6.59226
rclavicle 4.01545e-014 -3.18055e-015
rhumerus 153.494 128.644 73.858
rradius 68.1978
rwrist -8.48062
rhand -27.1892 14.5187
rfingers 7.12502
rthumb -0.602812 -15.4601
lclavicle 4.01545e-014 -3.18055e-015
lhumerus -28.6336 -23.0279 99.6471
lradius 74.3365
lwrist 28.0149
lhand -18.8737 31.6549
lfingers 7.12502
lthumb 7.42711 61.5045
rfemur -5.95551 -2.66342 37.2196
rtibia 44.091
rfoot -31.1379 -16.9152
rtoes -1.56427
lfemur -39.5664 8.55345 -9.89048
ltibia 36.4302
lfoot -4.48229 9.49141
ltoes -0.654215
549
root 3.56764 16.3712 -0.086272 0.578207 -15.4065 -11.7587
lowerback 12.7994 3.75671 3.12978
upperback 0.881903 5.6199 2.95072
thorax -6.2338 2.7004 0.346519
lowerneck -18.3725 -9.33489 -13.6263
upperneck 15.4379 -12.9159 17.6926
head 10.1005 -5.1502 6.53088
rclavicle -5.58088e-014 -1.86858e-014
rhumerus 153.01 129.474 74.1433
rradius 68.2855
rwrist -9.41639
rhand -26.7128 14.6488
rfingers 7.12502
rthumb -0.14271 -15.3308
lclavicle -5.58088e-014 -1.86858e-014
lhumerus -28.7318 -23.4669 100.028
lradius 74.0046
lwrist 27.1765
lhand -18.0556 31.5316
lfingers 7.12502
lthumb 8.21663 61.3518
rfemur -6.39976 -2.55684 37.1079
rtibia 43.9973
rfoot -30.7217 -16.725
rtoes -0.976234
lfemur -39.4525 8.80136 -9.99787
ltibia 37.4254
lfoot -4.51614 8.43655
ltoes -0.784009
550
root 3.59469 16.4105 -0.199934 0.552532 -15.4177 -11.5964
lowerback 12.949 3.50289 2.8818
upperback 0.964466 5.25629 3.04381
thorax -6.26406 2.52991 0.638426
lowerneck -18.5125 -9.13973 -13.3612
upperneck 15.2729 -12.6427 17.5798
head 9.99207 -5.01587 6.48622
rclavicle -3.08116e-015 -6.36111e-015
rhumerus 152.495 130.312 74.4533
rradius 68.3259
rwrist -10.352
rhand -26.2699 14.7211
rfingers 7.12502
rthumb 0.28508 -15.2585
lclavicle -3.08116e-015 -6.36111e-015
lhumerus -28.8424 -23.921 100.405
lradius 73.6775
lwrist 26.1947
lhand -17.1073 31.4322
lfingers 7.12502
lthumb 9.13176 61.2145
rfemur -6.78588 -2.435 36.9633
rtibia 43.8191
rfoot -30.2974 -16.6042
rtoes -0.430003
lfemur -39.2819 8.96703 -10.102
ltibia 38.4464
lfoot -4.78685 7.38122
ltoes -1.19283
